# Made in Blockbench 5.0.4
mtllib materials.mtl

o cuboid
v 0.40942097400467686 0.75 0.2854348407544791
v 0.2791848407544791 0.75 -0.4531709740046769
v 0.40942097400467686 0 0.2854348407544791
v 0.2791848407544791 0 -0.4531709740046769
v -0.3291848407544791 0.75 0.4156709740046769
v -0.4594209740046769 0.75 -0.3229348407544791
v -0.3291848407544791 0 0.4156709740046769
v -0.4594209740046769 0 -0.3229348407544791
vt 0.75 1
vt 0 1
vt 0 0.25
vt 0.75 0.25
vt 0.75 0.25
vt 0.75 1
vt 0 1
vt 0 0.25
vt 0 0.25
vt 0.75 0.25
vt 0.75 1
vt 0 1
vt 0.75 0.25
vt 0.75 1
vt 0 1
vt 0 0.25
vt 0 0.25
vt 0 1
vt 0.75 1
vt 0.75 0.25
vt 0 1
vt 0.75 1
vt 0.75 0.25
vt 0 0.25
vn 0.984807753012208 0 -0.17364817766693033
vn -0.984807753012208 0 0.17364817766693033
vn 0 1 0
vn 0 -1 0
vn 0.17364817766693033 0 0.984807753012208
vn -0.17364817766693033 0 -0.984807753012208
usemtl m_6d2d3289-0086-30cf-30ab-de4b258f8431
f 2/1/1 1/2/1 3/3/1 4/4/1
f 7/5/2 5/6/2 6/7/2 8/8/2
f 5/9/3 1/10/3 2/11/3 6/12/3
f 4/13/4 3/14/4 7/15/4 8/16/4
f 3/17/5 1/18/5 5/19/5 7/20/5
f 6/21/6 2/22/6 4/23/6 8/24/6